PathFileType	4	(X/Y/Z)	S240501-1155_P07_T01_0-394.trc
DataRate	CameraRate	NumFrames	NumMarkers	Units	OrigDataRate	OrigDataStartFrame	OrigNumFrames
60	60	12	13	m	60	147	394
Frame#	Time	Nose			LEye			LEar			LShoulder			LElbow			LWrist			LHip			REye			REar			RShoulder			RElbow			RWrist			RHip		
		X1	Y1	Z1	X2	Y2	Z2	X3	Y3	Z3	X4	Y4	Z4	X5	Y5	Z5	X6	Y6	Z6	X7	Y7	Z7	X8	Y8	Z8	X9	Y9	Z9	X10	Y10	Z10	X11	Y11	Z11	X12	Y12	Z12	X13	Y13	Z13
148	2.466666666666667	-0.06791169383692221	1.682796382173049	0.15955630235770107	-0.09235748063310519	1.6472333050678671	0.18378153253239618	-0.05794718091823777	1.592469459367569	0.2782704368835917	0.11230257488825254	1.51247334887354	0.2479727320807093	0.25761613147864615	1.5336858498331023	0.0548341408739787	0.3116958471043263	1.6012001755029286	-0.16675640208326356	0.5113678502788043	1.6074539532379843	0.23495849978588357	-0.09460708283107927	1.7129054808759767	0.1852818483904151	-0.06594234090558919	1.7526822513811646	0.2854337292534969	0.1046923259016801	1.8396404135910795	0.32117886588480765	0.3302915501059068	1.9278529226391483	0.26918778562791973	0.3242574254395398	1.8969069376581458	0.04518439858657245	0.5316782220788397	1.8183263467859303	0.23549818927704766
149	2.4833333333333334	-0.06648601553512558	1.6817234460196544	0.15906908944383072	-0.09054473521418788	1.6489875992139635	0.18564647406741924	-0.057873729877526606	1.5928519678479012	0.2775412781421978	0.11182550372870702	1.5127964602921813	0.24338053948108584	0.2575094775888699	1.5342318344047197	0.0576064203682597	0.31118595455794545	1.6010059560515286	-0.16434874881675987	0.5163080754218469	1.607143035380315	0.25522467382531777	-0.09300666918239087	1.7136834564734682	0.18324218936018244	-0.06558169457983545	1.7511313387939131	0.285424611895351	0.10444173522125488	1.8403185783261578	0.3184092265664869	0.3316749780560028	1.9291677104360156	0.26766730281560275	0.3221803418027368	1.9009064352046274	0.03391043065628009	0.5253345193364896	1.8162996160433105	0.23456600652385515
150	2.5	-0.06718071387557138	1.6813226210945031	0.15913320985424517	-0.08967371056443176	1.6487681662395246	0.18561011128746507	-0.05907958525349949	1.593679892910547	0.27626870468594605	0.11231265342592897	1.513800185477574	0.24284430023022802	0.2579024785753112	1.5350528185213557	0.05399551442518208	0.31374809806397863	1.5982448410186183	-0.16616743877738474	0.5207418534323898	1.609282974705656	0.2522505735282182	-0.09376920830541303	1.7131385296798942	0.18331495637333656	-0.06711426241691147	1.755948700317653	0.28260794392444233	0.10568565729827388	1.8398839830931093	0.3189026073003415	0.3290494345937671	1.9272987621896522	0.2664048097674989	0.3217715200843841	1.9060323864498658	0.03646566049730831	0.5306650367600724	1.816078191904262	0.23507313855459558
151	2.5166666666666666	-0.06681904554617936	1.6833992620175104	0.15787305741606128	-0.0899535773715782	1.6461673904546024	0.18425145913181534	-0.05744000820869523	1.5926811771081872	0.27701744851394117	0.11139379828316132	1.515741662894053	0.24706641785929412	0.26050455228230335	1.5338937356998954	0.05135120975963695	0.3134832551894007	1.6001954898342519	-0.17174645787913886	0.5740935460752972	1.6182211301169434	0.13907572242895286	-0.09255901858406271	1.713155085502724	0.1831655549328079	-0.06524659432492316	1.7584012922543018	0.28421993118413974	0.10588836904959867	1.8388758380144605	0.31960115825609275	0.32933524243652834	1.9293596681886611	0.2640824757041754	0.32224145980496394	1.9059425416002431	0.04798979139688713	0.5275533060565744	1.8205101278806428	0.23273584301527317
152	2.533333333333333	-0.06719957814175365	1.6821906765524608	0.15793070396300052	-0.0894934244540835	1.647027374197826	0.183352258421545	-0.05749074164106357	1.5949929214903305	0.27505416837563645	0.11109551489044375	1.5158667100330596	0.24684851728524435	0.2581065653510571	1.5352946380407373	0.05378997222698792	0.31517622139427776	1.6004277105264417	-0.1685159999621866	0.5728800593421346	1.6193606768926103	0.13864978496511152	-0.09142414455195699	1.7139235248087394	0.18205210793661464	-0.0646419885661295	1.7591940969275672	0.2831083779004891	0.10461776323252446	1.836966094491419	0.31992814458728513	0.3303176053925825	1.9290392565423296	0.26621371270547856	0.3237167912445831	1.9056182244891446	0.04745040503674598	0.5306705088518581	1.818991257383648	0.23429091319637574
153	2.55	-0.06594416280885403	1.6849404404706065	0.15672885274957232	-0.09047861519961727	1.6469908792039971	0.1800292119609478	-0.0580913487102285	1.5936442984449926	0.267644072109571	0.11239030107490051	1.5174605264899892	0.2426863567972362	0.25748376368982673	1.536153601801823	0.04962746034522109	0.31489350808349503	1.5973698098926739	-0.16993227140642422	0.5733810484640123	1.6193993444202874	0.1391312052828565	-0.09097007209999618	1.7145073784405283	0.1824204557639507	-0.06574481664664254	1.7595716557589665	0.28337662975929717	0.10706230470742696	1.8402904887676257	0.31506547423853926	0.33161756721860386	1.929354707851084	0.2661127135902603	0.3219283479741724	1.9052105560261594	0.04876826204892557	0.5295289275004452	1.8212985867674483	0.23941658822605622
154	2.566666666666667	-0.06666802685994506	1.6851644414731843	0.15589800453017352	-0.0902521507766636	1.6499861923468857	0.18035509767471083	-0.05891786892900879	1.5962871719162524	0.2691616407078372	0.11091787948338488	1.5161144394629773	0.24209591947868012	0.25964065533373754	1.5352801012952182	0.045500565625247395	0.31294070566392507	1.598842601109687	-0.1726360804731206	0.5679195405439836	1.6174098190346422	0.13802204503129503	-0.09057756005808766	1.714884393771353	0.18128966068768576	-0.06631056331780769	1.7601893797267685	0.28242799378114264	0.10684910392261127	1.8410482948499016	0.3152060828875616	0.3324838656758079	1.9333234913408268	0.2663814394246438	0.32225639264010225	1.90587866031302	0.04762847344852845	0.5248307668833772	1.8209961397324967	0.2384502114675936
155	2.5833333333333335	-0.06622534433287285	1.6854362399348917	0.15575814030411606	-0.08979530026023534	1.650311634267503	0.1801773171508141	-0.05835586468415307	1.5967184818683213	0.2688274274376984	0.11134440905624263	1.516548286085665	0.2415613712538394	0.25803893959439717	1.5374202772434933	0.0514503358832531	0.3133002875145654	1.599057394626895	-0.17274307320636978	0.5195754325918125	1.609567021950893	0.2577172901222536	-0.09163402877281038	1.7148761480838137	0.1814303080095909	-0.06530603366655	1.761580857672878	0.28126597411225734	0.1073398410691142	1.8415901453280625	0.31528049438528705	0.3319582767456727	1.9302049386611804	0.2655134564939059	0.32362225949794365	1.9012739953205688	0.046641333936323214	0.5124397607257261	1.8266361254098924	0.24749203723350055
156	2.6	-0.06470091235670825	1.6859752333843654	0.15489267634067003	-0.08906045226150931	1.6507828396928002	0.17978283770023148	-0.05864320773611001	1.597149615599049	0.2690452045722487	0.11145869629636808	1.517036725846986	0.24583978014659874	0.26060996700290084	1.538403911904822	0.050177192787531515	0.3151384020607037	1.597263464089024	-0.16999686347579948	0.5244298958695482	1.6128892992258013	0.24913011471814533	-0.09069317013558931	1.715451062797132	0.18040968230099536	-0.06398669172909285	1.7608524249677027	0.28185390738264415	0.10529030144934047	1.842027167686717	0.3140012789008097	0.3331064941623703	1.933370830025997	0.2657618143933853	0.3241908360402035	1.9022245576213102	0.04908669807973723	0.5206321376063643	1.8278486117811605	0.24901509076275816
157	2.6166666666666667	-0.0646911753022905	1.6856602718713176	0.15543641623870144	-0.08941004910354809	1.652367873183425	0.17886580534599208	-0.058961884566587304	1.5957511040900143	0.2674227095634498	0.10996378708668399	1.5177631627998989	0.24097942438935585	0.25627421252612526	1.5402463893036218	0.049701991288018776	0.3137072747260004	1.59941298137015	-0.17501541571584525	0.5797820676562065	1.6129312172774557	0.14979501848293092	-0.08980798703120704	1.7173471775929647	0.1789993074737162	-0.06392752639918786	1.760922638766442	0.2819712047636716	0.10557990930942686	1.8415377299814073	0.31469537525473135	0.3313309107603017	1.9323209805174775	0.2668849778986507	0.3235040415388737	1.9024095005365427	0.05003112800557857	0.5153149625629575	1.8272259434315798	0.24646220330145113
158	2.6333333333333333	-0.06469586497741833	1.6891145136450887	0.15443326088056566	-0.08920384990128519	1.6531628546763657	0.17658904923685095	-0.05800106607250236	1.5938393070239254	0.27217320858173294	0.11067937053797296	1.5169808070338366	0.2450684548800793	0.2568528315839563	1.538470700063867	0.052483037899572635	0.314574682442153	1.5975991180163078	-0.17140227948119355	0.5800094188035858	1.6131395141648102	0.14872487300604748	-0.08918826726376217	1.7159746984066582	0.179148140756307	-0.06403910839004516	1.7616854895082803	0.28012154625316016	0.10608755750794524	1.8416910604971397	0.31530527176921674	0.331746042945922	1.9323687659978124	0.2656115671577156	0.32344731064893006	1.902802404512283	0.04842747268132946	0.5303464309476789	1.8188789468440665	0.2398774158257577
159	2.65	-0.0626004126457918	1.6887904805836005	0.1547963338032836	-0.08903325509193966	1.6533156540737617	0.1804868136875885	-0.059719425620092234	1.5955541981994468	0.27138926888723275	0.11069811197188031	1.516579554955583	0.24524099740812388	0.2564093622056864	1.5402663407524069	0.05109682622373145	0.3132034738123032	1.5988300148414547	-0.172479449967368	0.5854163301466843	1.6068928166033298	0.16010315060639185	-0.08957173967265733	1.7177935182452078	0.17769459145994124	-0.06425312778795979	1.7619902337058055	0.2795168231564056	0.10623967175993634	1.8414728269523917	0.3153034769624127	0.3311811100715294	1.932108953997858	0.26582464807471484	0.32367292772291345	1.902497844686134	0.04818921700232588	0.5182186829272636	1.8291723390598282	0.24633138611264302
